# xmcd CD database file
#
# Track frame offsets:
#	150
#	20442
#	36226
#	62178
#	82182
#	102275
#	130278
#	149207
#	171167
#
# Disc length: 2676 seconds
#
# Revision: 0
# Processed by: cddbd v1.5.2PL0 Copyright (c) Steve Scherf et al.
# Submitted via: CDex 1.51
#
DISCID=860a7209
DTITLE=Shiga, Yumiko - Duos
DYEAR=2010
DGENRE=Jazz
TTITLE0=In Your Sweet Way
TTITLE1=Have You Met Miss Jones?
TTITLE2=How About You
TTITLE3=Jada
TTITLE4=Two Funky People
TTITLE5=All The Things You Are
TTITLE6=Candy
TTITLE7=These Foolish Thing
TTITLE8=Retrato Em Branco E Preto (ZINGARO)
EXTD=YEAR: 2010
EXTT0=
EXTT1=
EXTT2=
EXTT3=
EXTT4=
EXTT5=
EXTT6=
EXTT7=
EXTT8=
PLAYORDER=
